<svg xmlns="http://www.w3.org/2000/svg" viewBox="0 0 64 64" shape-rendering="crispEdges">
  <defs>
    <symbol id="star5w" viewBox="0 0 5 5">
      <g fill="black">
        <rect x="2" y="0" width="1" height="1"/><rect x="2" y="1" width="1" height="1"/><rect x="2" y="2" width="1" height="1"/><rect x="2" y="3" width="1" height="1"/><rect x="2" y="4" width="1" height="1"/>
        <rect x="0" y="2" width="1" height="1"/><rect x="1" y="2" width="1" height="1"/><rect x="3" y="2" width="1" height="1"/><rect x="4" y="2" width="1" height="1"/>
        <rect x="1" y="1" width="1" height="1"/><rect x="3" y="1" width="1" height="1"/><rect x="1" y="3" width="1" height="1"/><rect x="3" y="3" width="1" height="1"/>
        <rect x="2" y="2" width="1" height="1">
          <animate attributeName="opacity" values="1;0.75;1" dur="1.8s" begin="0.2s" repeatCount="indefinite"/>
        </rect>
      </g>
    </symbol>
    <symbol id="star7w" viewBox="0 0 7 7">
      <g fill="black">
        <rect x="3" y="0" width="1" height="1"/><rect x="3" y="1" width="1" height="1"/><rect x="3" y="2" width="1" height="1"/><rect x="3" y="3" width="1" height="1"/><rect x="3" y="4" width="1" height="1"/><rect x="3" y="5" width="1" height="1"/><rect x="3" y="6" width="1" height="1"/>
        <rect x="0" y="3" width="1" height="1"/><rect x="1" y="3" width="1" height="1"/><rect x="2" y="3" width="1" height="1"/><rect x="4" y="3" width="1" height="1"/><rect x="5" y="3" width="1" height="1"/><rect x="6" y="3" width="1" height="1"/>
        <rect x="2" y="2" width="1" height="1"/><rect x="4" y="2" width="1" height="1"/><rect x="2" y="4" width="1" height="1"/><rect x="4" y="4" width="1" height="1"/>
        <rect x="1" y="1" width="1" height="1"/><rect x="5" y="1" width="1" height="1"/><rect x="1" y="5" width="1" height="1"/><rect x="5" y="5" width="1" height="1"/>
        <rect x="3" y="3" width="1" height="1">
          <animate attributeName="opacity" values="1;0.7;1" dur="2.2s" begin="0.4s" repeatCount="indefinite"/>
        </rect>
        <rect x="2" y="2" width="1" height="1">
          <animate attributeName="opacity" values="1;0.8;1" dur="2.2s" begin="0.8s" repeatCount="indefinite"/>
        </rect>
        <rect x="4" y="4" width="1" height="1">
          <animate attributeName="opacity" values="1;0.85;1" dur="2.2s" begin="1.2s" repeatCount="indefinite"/>
        </rect>
      </g>
    </symbol>
    <symbol id="star9w" viewBox="0 0 9 9">
      <g fill="black">
        <rect x="4" y="0" width="1" height="1"/><rect x="4" y="1" width="1" height="1"/><rect x="4" y="2" width="1" height="1"/><rect x="4" y="3" width="1" height="1"/><rect x="4" y="4" width="1" height="1"/><rect x="4" y="5" width="1" height="1"/><rect x="4" y="6" width="1" height="1"/><rect x="4" y="7" width="1" height="1"/><rect x="4" y="8" width="1" height="1"/>
        <rect x="0" y="4" width="1" height="1"/><rect x="1" y="4" width="1" height="1"/><rect x="2" y="4" width="1" height="1"/><rect x="3" y="4" width="1" height="1"/><rect x="5" y="4" width="1" height="1"/><rect x="6" y="4" width="1" height="1"/><rect x="7" y="4" width="1" height="1"/><rect x="8" y="4" width="1" height="1"/>
        <rect x="3" y="3" width="1" height="1"/><rect x="5" y="3" width="1" height="1"/><rect x="3" y="5" width="1" height="1"/><rect x="5" y="5" width="1" height="1"/>
        <rect x="2" y="2" width="1" height="1"/><rect x="6" y="2" width="1" height="1"/><rect x="2" y="6" width="1" height="1"/><rect x="6" y="6" width="1" height="1"/>
        <rect x="4" y="4" width="1" height="1">
          <animate attributeName="opacity" values="1;0.75;1" dur="2.6s" begin="0.6s" repeatCount="indefinite"/>
        </rect>
      </g>
    </symbol>
  </defs>
  <use href="#star9w" x="36" y="24" width="9" height="9"/>
  <use href="#star7w" x="27" y="18" width="7" height="7"/>
  <use href="#star5w" x="26" y="32" width="5" height="5"/>
</svg>