<svg width="1728" height="583" viewBox="0 0 1728 583" fill="none" xmlns="http://www.w3.org/2000/svg">
<mask id="mask0_232_2" style="mask-type:alpha" maskUnits="userSpaceOnUse" x="0" y="0" width="1728" height="583">
<rect width="1728" height="583" fill="white"/>
</mask>
<g mask="url(#mask0_232_2)">
<path d="M0 583C0 583 338.605 336.573 416.666 329.46C494.728 322.348 556.062 454.557 620.438 452.046C684.813 449.536 947.891 168.383 1075.12 168.383C1202.35 168.383 1195.25 324.858 1307.79 322.348C1420.32 319.837 1728 14 1728 14" stroke="#2E81FF" stroke-width="20" stroke-linecap="square"/>
<path d="M416.666 329.46C338.605 336.573 0 583 0 583H1728V14C1728 14 1420.32 319.837 1307.79 322.348C1195.25 324.858 1202.35 168.383 1075.12 168.383C947.891 168.383 684.813 449.536 620.438 452.046C556.062 454.557 494.728 322.348 416.666 329.46Z" fill="url(#paint0_linear_232_2)"/>
</g>
<defs>
<linearGradient id="paint0_linear_232_2" x1="864" y1="-357" x2="864" y2="526" gradientUnits="userSpaceOnUse">
<stop stop-color="#5F9FFF"/>
<stop offset="1" stop-color="white"/>
</linearGradient>
</defs>
</svg>
